<svg id="Layer_1" data-name="Layer 1" xmlns="http://www.w3.org/2000/svg" viewBox="0 0 436.11 273"><defs><style>.cls-1{fill:#fff;}</style></defs><path class="cls-1" d="M31.17,66H62a2.57,2.57,0,0,1,2.57,2.57h0v55.49A2.57,2.57,0,0,1,62,126.61H39a2.57,2.57,0,0,0-2.57,2.57h0V143.4a2.55,2.55,0,0,0,.15.86L67.4,231a2.56,2.56,0,0,0,2.42,1.71H94.16a2.58,2.58,0,0,0,2.57-2.57,2.91,2.91,0,0,0-.16-.88l-29-79.79a2.56,2.56,0,0,1,1.53-3.29,2.66,2.66,0,0,1,.83-.16q11.16-.21,15-1.8,8.19-3.54,8.19-15.64V59q0-17.61-17.23-17.6H2.57A2.57,2.57,0,0,0,0,44V270.43A2.57,2.57,0,0,0,2.57,273H433.51a2.57,2.57,0,0,0,2.57-2.57h0V250.86a2.57,2.57,0,0,0-2.57-2.57H31.17a2.57,2.57,0,0,1-2.57-2.56V68.56A2.57,2.57,0,0,1,31.17,66Z"/><path class="cls-1" d="M173.67,230.13V162.78a2.75,2.75,0,0,1,.1-.7q7.86-27.75,12.46-39.55l.06-.15L211.44,42.9a2.53,2.53,0,0,0,.12-.77v-.7H184.19a2.57,2.57,0,0,0-2.48,1.89L162,115.5a2.57,2.57,0,0,1-5,0L137.12,43.31a2.57,2.57,0,0,0-2.48-1.88H107.19c-.09.65-.09,1,0,1.1l25.17,80q.49,1.59,7,19.8a161.82,161.82,0,0,1,5.57,19.9,3.29,3.29,0,0,1,0,.54v67.43a2.57,2.57,0,0,0,2.57,2.57h23.58a2.57,2.57,0,0,0,2.54-2.6Z"/><path class="cls-1" d="M289.39,198.57l5.06,32A2.58,2.58,0,0,0,297,232.7h23a2.57,2.57,0,0,0,2.57-2.55,2.73,2.73,0,0,0-.05-.5L286.76,43.27a2.57,2.57,0,0,0-2.52-2.09H258.41a2.56,2.56,0,0,0-2.52,2.08l-36.63,189v.49h26a2.58,2.58,0,0,0,2.58-2.25l5.06-32a2.56,2.56,0,0,1,2.53-2.17h31.43A2.56,2.56,0,0,1,289.39,198.57Zm-15.78-97.39,10.93,67.68a2.59,2.59,0,0,1-2.13,3,2.73,2.73,0,0,1-.41,0H260a2.57,2.57,0,0,1-2.57-2.59,2.93,2.93,0,0,1,0-.41l11-67.67a2.57,2.57,0,0,1,5.11,0Z"/><path class="cls-1" d="M0,2.57V22.14a2.57,2.57,0,0,0,2.57,2.57h403a2.57,2.57,0,0,1,2.57,2.56V141a2.57,2.57,0,0,1-5,.93l-38.4-98.83a2.56,2.56,0,0,0-2.39-1.64h-20.7A2.57,2.57,0,0,0,339.16,44h0V230.13a2.57,2.57,0,0,0,2.57,2.57h22.73a2.57,2.57,0,0,0,2.57-2.57h0v-99a2.57,2.57,0,0,1,5-.91l38.4,100.87a2.58,2.58,0,0,0,2.4,1.65h20.71a2.57,2.57,0,0,0,2.57-2.57h0V24.71h0V2.57A2.57,2.57,0,0,0,433.54,0H2.57A2.57,2.57,0,0,0,0,2.57Z"/></svg>