<svg id="Layer_1" data-name="Layer 1" xmlns="http://www.w3.org/2000/svg" viewBox="0 0 1152.1 104"><defs><style>.cls-1{fill:#80f9ea;}</style></defs><line class="cls-1" x1="176.53" y1="4" x2="535.69" y2="4"/><path class="cls-1" d="M1136.45,1564.53H777.29a4,4,0,1,1,0-8h359.16a4,4,0,0,1,0,8Z" transform="translate(-600.76 -1556.53)"/><line class="cls-1" x1="385.73" y1="52" x2="744.89" y2="52"/><path class="cls-1" d="M1345.65,1612.53H986.49a4,4,0,0,1,0-8h359.16a4,4,0,0,1,0,8Z" transform="translate(-600.76 -1556.53)"/><line class="cls-1" x1="4" y1="52" x2="363.16" y2="52"/><path class="cls-1" d="M963.92,1612.53H604.76a4,4,0,0,1,0-8H963.92a4,4,0,0,1,0,8Z" transform="translate(-600.76 -1556.53)"/><line class="cls-1" x1="788.94" y1="52" x2="1148.1" y2="52"/><path class="cls-1" d="M1748.87,1612.53H1389.71a4,4,0,0,1,0-8h359.16a4,4,0,0,1,0,8Z" transform="translate(-600.76 -1556.53)"/><line class="cls-1" x1="563.79" y1="4" x2="922.95" y2="4"/><path class="cls-1" d="M1523.71,1564.53H1164.55a4,4,0,0,1,0-8h359.16a4,4,0,0,1,0,8Z" transform="translate(-600.76 -1556.53)"/><line class="cls-1" x1="189.8" y1="100" x2="548.96" y2="100"/><path class="cls-1" d="M1149.73,1660.53H790.57a4,4,0,1,1,0-8h359.16a4,4,0,0,1,0,8Z" transform="translate(-600.76 -1556.53)"/><line class="cls-1" x1="574.51" y1="100" x2="933.67" y2="100"/><path class="cls-1" d="M1534.43,1660.53H1175.27a4,4,0,0,1,0-8h359.16a4,4,0,0,1,0,8Z" transform="translate(-600.76 -1556.53)"/></svg>