<svg id="Layer_1" data-name="Layer 1" xmlns="http://www.w3.org/2000/svg" viewBox="0 0 615.37 977.21"><defs><style>.cls-1{fill:#80f9ea;}</style></defs><path class="cls-1" d="M825.06,1396.66h-.49c-8.07-.2-16.93-5.36-18.56-16.44l-41.73-284.89a19.3,19.3,0,0,1,5.43-16.39l29-29,61.79-61.79a9.18,9.18,0,0,0,2.71-6.53,889.81,889.81,0,0,1,33.54-243.11c32.07-113.27,85.89-218.17,160-311.79a19.15,19.15,0,0,1,15.09-7.3h0a19.13,19.13,0,0,1,15.08,7.3c74.08,93.63,127.9,198.53,160,311.79a889.81,889.81,0,0,1,33.54,243.11,9.18,9.18,0,0,0,2.71,6.53l90.75,90.75a19.3,19.3,0,0,1,5.43,16.39h0q-20.87,142.46-41.73,284.88c-1.62,11.08-10.49,16.25-18.56,16.45s-17.17-4.51-19.35-15.5l-24.52-123.88a8.85,8.85,0,0,0-9.06-7.45h0a8.85,8.85,0,0,0-9,7.47l-.17.85a19.15,19.15,0,0,1-18.23,15.53l-51.76,1.73a9.21,9.21,0,0,0-8.93,9.17V1286a19.29,19.29,0,0,1-19.24,19.11H984.91a19.29,19.29,0,0,1-19.24-19.12v-1.37a9.21,9.21,0,0,0-8.93-9.17L905,1273.67a19.15,19.15,0,0,1-18.24-15.54l-.17-.83a8.84,8.84,0,0,0-9.05-7.46h0a8.84,8.84,0,0,0-9.06,7.44l-24.53,123.88C841.79,1391.92,833,1396.66,825.06,1396.66Zm246.71-967.21a9.16,9.16,0,0,0-7.24,3.5C991.27,525.54,938,629.27,906.33,741.26a880.14,880.14,0,0,0-33.16,240.38,19.11,19.11,0,0,1-5.64,13.61q-30.88,30.9-61.79,61.79l-29,29a9.29,9.29,0,0,0-2.61,7.87l41.74,284.89a9.24,9.24,0,0,0,18.2.45l24.53-123.87a18.81,18.81,0,0,1,18.87-15.5h0a18.82,18.82,0,0,1,18.86,15.55l.16.82a9.19,9.19,0,0,0,8.76,7.46l51.76,1.73a19.18,19.18,0,0,1,18.59,19.1v1.38a9.26,9.26,0,0,0,9.24,9.18h173.71a9.26,9.26,0,0,0,9.24-9.18v-1.37a19.2,19.2,0,0,1,18.59-19.11l51.76-1.73a9.19,9.19,0,0,0,8.76-7.46l.17-.85a18.81,18.81,0,0,1,18.85-15.54h0a18.82,18.82,0,0,1,18.87,15.51l24.52,123.88a9.24,9.24,0,0,0,18.21-.46q20.86-142.43,41.73-284.88h0a9.29,9.29,0,0,0-2.61-7.87L1276,995.25a19.11,19.11,0,0,1-5.64-13.61,880.19,880.19,0,0,0-33.16-240.38c-31.71-112-84.93-215.71-158.19-308.31A9.16,9.16,0,0,0,1071.77,429.45Z" transform="translate(-764.08 -419.45)"/><path class="cls-1" d="M1071.76,950.71a102.42,102.42,0,1,1,102.42-102.42A102.53,102.53,0,0,1,1071.76,950.71Zm0-194.83a92.42,92.42,0,1,0,92.42,92.41A92.52,92.52,0,0,0,1071.76,755.88Z" transform="translate(-764.08 -419.45)"/></svg>