<svg id="Layer_1" data-name="Layer 1" xmlns="http://www.w3.org/2000/svg" viewBox="0 0 436.09 273"><defs><style>.cls-1{fill:#231f20;}</style></defs><path class="cls-1" d="M313.13,429.49H344a2.57,2.57,0,0,1,2.57,2.57v55.49a2.57,2.57,0,0,1-2.57,2.56h-23a2.57,2.57,0,0,0-2.57,2.57V506.9a2.47,2.47,0,0,0,.15.86l30.78,86.73a2.56,2.56,0,0,0,2.42,1.71h24.34a2.57,2.57,0,0,0,2.41-3.45l-29-79.79a2.57,2.57,0,0,1,2.36-3.45q11.16-.21,15-1.8,8.19-3.54,8.19-15.64V422.53q0-17.61-17.23-17.6H284.53a2.57,2.57,0,0,0-2.57,2.56V633.93a2.57,2.57,0,0,0,2.57,2.57H715.47a2.57,2.57,0,0,0,2.57-2.57V614.36a2.57,2.57,0,0,0-2.57-2.57H313.13a2.57,2.57,0,0,1-2.57-2.56V432.06A2.57,2.57,0,0,1,313.13,429.49Z" transform="translate(-281.96 -363.5)"/><path class="cls-1" d="M455.63,593.63V526.28a2.75,2.75,0,0,1,.1-.7q7.86-27.75,12.46-39.55l.06-.15L493.4,406.4a2.53,2.53,0,0,0,.12-.77v-.7H466.15a2.57,2.57,0,0,0-2.48,1.89L443.93,479a2.57,2.57,0,0,1-5,0l-19.85-72.19a2.57,2.57,0,0,0-2.48-1.88H389.15c-.09.65-.09,1,0,1.1L414.32,486q.49,1.59,7,19.8a162.17,162.17,0,0,1,5.57,19.9,3.29,3.29,0,0,1,.05.54v67.43a2.57,2.57,0,0,0,2.57,2.57h23.58A2.57,2.57,0,0,0,455.63,593.63Z" transform="translate(-281.96 -363.5)"/><path class="cls-1" d="M571.35,562.07l5.06,32A2.58,2.58,0,0,0,579,596.2h23a2.56,2.56,0,0,0,2.52-3.05l-35.8-186.38a2.57,2.57,0,0,0-2.52-2.09H540.37a2.57,2.57,0,0,0-2.52,2.08l-36.63,189v.49h26A2.58,2.58,0,0,0,529.8,594l5.06-32a2.56,2.56,0,0,1,2.53-2.17h31.43A2.56,2.56,0,0,1,571.35,562.07Zm-15.78-97.39,10.93,67.68a2.58,2.58,0,0,1-2.54,3H542a2.58,2.58,0,0,1-2.54-3l11-67.67A2.57,2.57,0,0,1,555.57,464.68Z" transform="translate(-281.96 -363.5)"/><path class="cls-1" d="M282,366.07v19.57a2.57,2.57,0,0,0,2.57,2.57H687.61a2.57,2.57,0,0,1,2.57,2.56V504.46a2.57,2.57,0,0,1-5,.93l-38.4-98.83a2.56,2.56,0,0,0-2.39-1.64H623.69a2.57,2.57,0,0,0-2.57,2.57V593.63a2.57,2.57,0,0,0,2.57,2.57h22.73a2.57,2.57,0,0,0,2.57-2.57v-99a2.57,2.57,0,0,1,5-.91l38.4,100.87a2.57,2.57,0,0,0,2.4,1.65h20.71a2.57,2.57,0,0,0,2.57-2.57V388.21h0V366.07a2.57,2.57,0,0,0-2.57-2.57H284.53A2.57,2.57,0,0,0,282,366.07Z" transform="translate(-281.96 -363.5)"/></svg>